<?xml version="1.0" encoding="UTF-8"?>
<svg id="Layer_1" xmlns="http://www.w3.org/2000/svg" viewBox="0 0 462.09 321.12">
    <path class="cls-1" d="m211.19,321.12h-81.02C43.39,321.12,0,267.02,0,158.83S43.39.05,130.16.05h81.02v321.07ZM177.38,38.16h-46.52c-37.17,0-62.47,10.51-75.88,31.54s-20.13,50.74-20.13,89.14,6.74,69.97,20.21,91.66c13.48,21.68,38.74,32.52,75.8,32.52h46.52V38.16Z"/><path class="cls-1" d="m243.19,178.12h83.99c89.95,0,134.92,23.57,134.92,70.72s-44.97,72.28-134.92,72.28h-83.99v-142.99Zm35.04,126.02h48.22c38.41,0,64.6-4.83,78.57-14.49,13.97-9.66,20.95-23.26,20.95-40.82s-6.95-30.33-20.86-39.7c-13.91-9.36-40.13-14.05-78.66-14.05h-48.22v109.05Z"/><path class="cls-1" d="m243.18,0h66.62c71.35,0,107.02,24.62,107.02,73.85s-35.67,72.26-107.02,72.26h-66.62V0Zm27.79,128.77h38.25c30.56,0,51.36-4.78,62.39-14.35s16.55-23.09,16.55-40.56-5.54-31.84-16.62-41.71c-11.08-9.87-31.85-14.8-62.32-14.8h-38.25v111.43Z"/>
</svg>